<svg width="75" height="75" viewBox="0 0 75 75" fill="none" xmlns="http://www.w3.org/2000/svg">
<path d="M66.6667 0H8.33333C6.1232 0 4.00358 0.877973 2.44078 2.44078C0.877973 4.00358 0 6.1232 0 8.33333V66.6667C0 68.8768 0.877973 70.9964 2.44078 72.5592C4.00358 74.122 6.1232 75 8.33333 75H66.6667C71.2917 75 75 71.2917 75 66.6667V8.33333C75 6.1232 74.122 4.00358 72.5592 2.44078C70.9964 0.877973 68.8768 0 66.6667 0ZM29 62L23.0833 56.125L42.2083 37L23.0833 17.875L29 12L54 37L29 62Z" fill="white"/>
</svg>
