<svg width="75" height="75" viewBox="0 0 75 75" fill="none" xmlns="http://www.w3.org/2000/svg">
<path d="M53.5714 75C50.625 75 48.1036 73.9518 46.0071 71.8554C43.9071 69.7554 42.8571 67.2321 42.8571 64.2857V10.7143C42.8571 7.76786 43.9071 5.24643 46.0071 3.15C48.1036 1.05 50.625 0 53.5714 0H64.2857C67.2321 0 69.7554 1.05 71.8554 3.15C73.9518 5.24643 75 7.76786 75 10.7143V64.2857C75 67.2321 73.9518 69.7554 71.8554 71.8554C69.7554 73.9518 67.2321 75 64.2857 75H53.5714ZM10.7143 75C7.76786 75 5.24643 73.9518 3.15 71.8554C1.05 69.7554 0 67.2321 0 64.2857V10.7143C0 7.76786 1.05 5.24643 3.15 3.15C5.24643 1.05 7.76786 0 10.7143 0H21.4286C24.375 0 26.8982 1.05 28.9982 3.15C31.0946 5.24643 32.1429 7.76786 32.1429 10.7143V64.2857C32.1429 67.2321 31.0946 69.7554 28.9982 71.8554C26.8982 73.9518 24.375 75 21.4286 75H10.7143Z" fill="black"/>
</svg>
