<svg width="75" height="75" viewBox="0 0 75 75" fill="none" xmlns="http://www.w3.org/2000/svg">
<path d="M8.33334 0H66.6667C68.8768 0 70.9964 0.877973 72.5592 2.44078C74.122 4.00358 75 6.1232 75 8.33333V66.6667C75 68.8768 74.122 70.9964 72.5592 72.5592C70.9964 74.122 68.8768 75 66.6667 75H8.33334C3.70834 75 0 71.2917 0 66.6667V8.33333C0 6.1232 0.877978 4.00358 2.44078 2.44078C4.00358 0.877973 6.1232 0 8.33334 0ZM46 62L51.9167 56.125L32.7917 37L51.9167 17.875L46 12L21 37L46 62Z" fill="white"/>
</svg>
